PathFileType	4	(X/Y/Z)	D:\TRACE\spot_10-12-23\spot_arm_body_motion_3_4-v60.trc
DataRate	CameraRate	NumFrames	NumMarkers	Units	OrigDataRate	OrigDataStartFrame	OrigNumFrames
100.00	100.00	      21	9	mm	100.00	1751	      7000
Frame#	Time	front left toe			Front right toe			aft left toe			aft right toe			Arm			FL body			FR body			AL Body			AR Body			
		X1	Y1	Z1	X2	Y2	Z2	X3	Y3	Z3	X4	Y4	Z4	X5	Y5	Z5	X6	Y6	Z6	X7	Y7	Z7	X8	Y8	Z8	X9	Y9	Z9	

1751	17.500	-155.25751	28.11672	-392.36880	262.51312	41.96962	-455.04611	-123.69719	11.75353	160.23929	278.68008	13.60055	185.76425	74.37289	854.67444	-715.14270	-74.19588	627.70294	-484.34274	78.15014	631.34314	-490.83981	-41.59916	571.23566	397.77081	108.43884	568.03632	393.68643	
1752	17.510	-155.46779	27.93822	-392.10995	262.29077	42.09035	-455.36896	-123.54100	11.95230	160.34518	279.27271	13.49874	185.77528	75.08205	854.53625	-714.57550	-74.34486	627.23346	-484.43936	77.94463	630.48273	-490.72385	-39.50707	571.05707	397.38278	110.75256	568.10919	393.32437	
1753	17.520	-155.49638	27.83842	-391.88806	262.04340	42.12101	-455.53995	-123.30782	12.08319	160.49474	279.68991	13.33438	185.67462	76.41921	854.23218	-713.71729	-74.28091	626.71106	-484.49026	77.95434	630.00781	-491.32324	-37.50735	571.19897	397.27151	112.36298	568.11517	392.78668	
1754	17.530	-155.43793	27.73856	-391.71362	261.93161	42.14207	-455.57883	-123.07551	12.17247	160.60849	279.89917	13.21022	185.57614	77.71909	853.94934	-713.06232	-73.90148	626.12018	-484.42798	78.29171	629.41382	-491.52512	-35.82816	571.28149	397.37299	114.14681	568.23846	392.58865	
1755	17.540	-155.41451	27.72575	-391.63324	262.00162	42.03673	-455.58249	-122.98167	12.18645	160.64522	279.96497	13.11325	185.52917	78.86077	853.63885	-712.17950	-73.26116	625.60077	-484.28586	78.74688	629.00616	-491.66934	-34.45168	571.29041	397.41873	115.73618	568.04272	392.23636	
1756	17.550	-155.37030	27.94351	-391.72134	262.22733	41.95364	-455.51685	-123.00008	12.18880	160.64339	279.91916	13.10250	185.53702	79.57846	853.60413	-711.89166	-72.32970	625.52673	-484.40347	79.84021	628.67426	-491.58194	-33.34133	570.98364	397.42075	116.74472	567.63855	392.56686	
1757	17.560	-155.79816	28.56583	-391.91949	262.48532	41.87119	-455.34100	-123.09750	12.17106	160.65433	279.92752	13.08140	185.74530	80.32886	853.46991	-711.49475	-71.22403	625.58459	-484.46313	80.96531	628.47107	-491.53638	-32.69691	570.62280	397.43893	117.36178	567.27509	392.50589	
1758	17.570	-155.12845	28.54975	-392.04800	262.85565	41.64594	-455.14828	-123.28734	12.10558	160.56599	279.76874	13.08369	185.80852	80.59174	853.43268	-711.28955	-69.60233	625.45599	-484.16333	82.53300	628.33148	-491.29929	-32.06890	570.15552	397.53949	117.99162	566.80878	392.84674	
1759	17.580	-155.26848	29.10798	-392.12909	263.23260	41.43060	-454.85114	-123.36452	12.04276	160.52715	279.50659	13.14272	185.92461	80.42593	853.52277	-711.27692	-67.77509	625.37762	-484.07611	84.32584	628.31024	-490.91867	-31.46320	569.78583	397.86880	118.64397	566.20142	393.26199	
1760	17.590	-155.01457	29.30964	-392.13516	263.13394	42.19934	-454.37979	-123.40528	12.00226	160.50813	279.38965	13.17776	186.04506	80.08327	853.62964	-711.40485	-65.96113	625.38293	-483.71860	86.03356	628.23871	-490.41977	-30.95658	569.27234	398.08298	118.81845	565.77728	393.68579	
1761	17.600	-154.86398	29.50791	-392.19812	263.79373	41.27543	-454.26474	-123.43918	12.00107	160.47662	279.35815	13.13639	186.10242	79.38486	853.77655	-711.65009	-64.33825	625.48407	-483.46939	87.94662	627.98682	-489.88025	-30.61533	568.93085	398.31494	119.23763	565.38489	394.41229	
1762	17.610	-154.73950	29.67497	-392.23956	263.39136	41.95224	-454.26733	-123.43532	12.03071	160.47530	279.38721	13.07958	186.23109	79.02359	853.87042	-711.75543	-62.47397	625.09076	-482.98904	89.65429	627.92157	-489.34073	-29.92732	568.54877	398.63657	119.65125	565.07019	394.90674	
1763	17.620	-154.64555	29.72135	-392.25958	263.87830	40.99830	-454.42038	-123.36149	12.10464	160.54343	279.43164	12.94837	186.31920	78.59078	854.09149	-711.91180	-61.03113	625.20099	-482.48267	91.25024	627.92004	-488.74896	-28.92680	568.11310	399.11365	121.26851	564.65759	396.05423	
1764	17.630	-154.63666	29.80699	-392.19305	263.90247	41.01416	-454.36438	-123.22585	12.17576	160.64366	279.66309	12.88616	186.50987	77.91141	854.13000	-712.10547	-59.56023	625.11182	-482.05515	92.54726	627.92981	-488.18347	-27.71840	567.85205	399.94324	123.06084	564.30457	396.05017	
1765	17.640	-154.62961	29.89262	-392.13583	263.12936	40.32609	-454.36774	-123.12115	12.23560	160.73138	279.80060	12.72893	186.59656	77.54427	854.24500	-712.26080	-58.43390	624.90643	-481.33939	93.68461	627.75824	-487.56992	-26.19167	567.61810	400.44717	123.68655	564.00281	396.74127	
1766	17.650	-154.67024	29.94652	-392.03241	263.04477	40.39220	-454.34909	-122.98185	12.32903	160.76154	279.89700	12.65033	186.61652	77.40346	854.33527	-712.32623	-57.23486	624.55225	-480.64288	94.52155	627.62549	-486.86212	-24.79705	567.02051	401.06860	125.17258	563.59857	397.36273	
1767	17.660	-154.71092	30.01159	-391.89966	262.98886	40.42978	-454.29874	-122.82731	12.43457	160.80481	280.09857	12.53409	186.63768	77.71929	854.22968	-712.28943	-56.22353	624.24371	-480.01443	95.91541	627.34827	-486.22241	-23.30250	566.68274	401.84402	126.64497	563.34650	397.90393	
1768	17.670	-154.74794	30.06745	-391.72571	263.02301	40.46365	-454.20438	-122.70988	12.57726	160.81891	280.17249	12.44467	186.66182	78.14444	854.14642	-712.19830	-55.21621	623.84210	-479.21988	96.91411	627.24902	-485.37692	-21.78769	566.00262	402.44223	128.19373	562.85181	398.63354	
1769	17.680	-154.82074	30.24762	-391.52109	263.09897	40.48474	-454.21579	-122.54221	12.74319	160.87692	280.39938	12.31875	186.60738	78.53271	854.13062	-712.01196	-53.94571	623.40704	-478.48959	98.35526	626.59735	-484.30948	-20.44348	565.43604	403.14197	130.03815	562.24213	399.55823	
1770	17.690	-154.70595	30.35209	-391.46448	263.17435	40.45242	-454.03564	-122.39310	12.95493	161.01717	280.52960	12.14941	186.73164	78.95264	854.02515	-711.91162	-52.72837	623.09241	-477.62720	99.21935	626.92529	-484.29489	-18.50693	564.68256	404.03427	131.32060	561.89008	399.97708	
1771	17.700	-154.61668	30.50655	-391.39404	263.27417	40.43531	-453.96478	-122.30723	13.08202	161.16139	280.54492	12.01873	186.77550	79.09354	853.94385	-711.81360	-51.50694	622.77081	-476.84775	100.50241	626.67682	-483.23788	-17.37416	564.12317	404.89450	133.65178	561.85187	401.77933	
